<?xml version="1.0" encoding="UTF-8"?><svg id="Layer_2" xmlns="http://www.w3.org/2000/svg" viewBox="0 0 362.3973 75.2477"><g id="Components"><g id="_28fe2630-65cc-4fd9-afe1-36ac0ee7dde8_4"><path d="M4.481,30.8522c5.4586,6.13,8.7751,14.2093,8.7751,23.0632,0,6.6676-1.8809,12.8958-5.141,18.1832" style="fill:none; stroke:#000; stroke-miterlimit:10; stroke-width:12px;"/><path d="M45.4159,3.9901c-9.0135,10.1223-14.49,23.4633-14.49,38.0833,0,11.0099,3.1058,21.2944,8.4891,30.0252" style="fill:none; stroke:#000; stroke-miterlimit:10; stroke-width:12px;"/><path d="M81.8851,13.8819v51.4082h-8.208V13.8819h8.208Z" style="fill:#000; stroke-width:0px;"/><path d="M124.5809,54.2022c-.6724,3.8887-2.3286,6.9014-4.9678,9.0371-2.6406,2.1348-6.4326,3.2031-11.376,3.2031-5.9526,0-10.4761-1.7148-13.5723-5.1484-3.0957-3.4307-4.644-8.2676-4.644-14.5078,0-3.2148.4434-6.0713,1.332-8.5674.8877-2.4951,2.1353-4.5957,3.7441-6.2998,1.6074-1.7031,3.5278-3,5.7603-3.8887,2.2319-.8867,4.6909-1.332,7.3799-1.332,2.8799,0,5.375.4453,7.4878,1.332,2.1118.8887,3.8633,2.1367,5.2563,3.7441,1.3916,1.6094,2.4229,3.5283,3.0957,5.7598.6719,2.2324,1.0083,4.7168,1.0083,7.4521v3.6006h-26.8564c.0957,3.4082.96,6.168,2.5923,8.2793,1.6313,2.1133,4.104,3.168,7.416,3.168,2.5918,0,4.5361-.5039,5.832-1.5117,1.2959-1.0078,2.1597-2.4473,2.5918-4.3203h7.9199ZM117.0931,42.8985c0-3.0713-.7202-5.4951-2.1602-7.2725-1.4399-1.7754-3.7441-2.6641-6.9121-2.6641-3.0239,0-5.3276.9004-6.9116,2.7012-1.584,1.7988-2.4966,4.2109-2.7363,7.2354h18.7202Z" style="fill:#000; stroke-width:0px;"/><path d="M140.9974,27.8507v5.4727c1.6797-2.3047,3.564-3.9844,5.6519-5.041,2.0879-1.0547,4.3311-1.584,6.7319-1.584,8.3521,0,12.5283,4.6084,12.5283,13.8242v24.7676h-8.208v-23.4717c0-3.0244-.5527-5.1475-1.6562-6.3721-1.1045-1.2236-2.7358-1.8359-4.896-1.8359-1.4399,0-2.772.252-3.9961.7559-1.2236.5039-2.2681,1.1885-3.1318,2.0527-.8643.8633-1.5479,1.8604-2.0522,2.9883-.5039,1.127-.7559,2.3164-.7559,3.5635v22.3193h-8.1357V27.8507h7.9199Z" style="fill:#000; stroke-width:0px;"/><path d="M201.4051,60.1065c-1.5366,2.1133-3.2759,3.6973-5.2197,4.752-1.9438,1.0547-4.2119,1.584-6.8042,1.584-2.6885,0-5.0161-.4805-6.9839-1.4395-1.9687-.96-3.6001-2.3154-4.896-4.0684-1.2959-1.752-2.2681-3.8398-2.916-6.2637s-.9722-5.0996-.9722-8.0283c0-2.7354.3354-5.292,1.0083-7.668.6714-2.376,1.6558-4.4395,2.9521-6.1924,1.2959-1.752,2.8911-3.1553,4.7876-4.2119,1.896-1.0557,4.0918-1.6309,6.5884-1.7275.479-.0469.9595-.0605,1.4399-.0361.479.0244.9829.0605,1.5117.1084,1.6797.1914,3.2998.6602,4.8604,1.4033,1.5591.7451,3.0596,1.9795,4.5,3.708V13.8819h8.1357v51.4082h-7.9922v-5.1836ZM201.3333,45.7784c0-2.3516-.252-4.3311-.7559-5.9395-.5039-1.6074-1.2007-2.8809-2.0884-3.8164-.8887-.9355-1.9199-1.6074-3.0957-2.0156-1.1768-.4082-2.4121-.6123-3.708-.6123-3.0239,0-5.3643,1.0801-7.02,3.2402-1.6562,2.1592-2.4839,5.4482-2.4839,9.8643,0,2.4004.2271,4.4395.6841,6.1191.4556,1.6816,1.1035,3.0488,1.9438,4.1045.8394,1.0557,1.811,1.8252,2.916,2.3037,1.1035.4805,2.3037.7207,3.6001.7207,2.9756,0,5.3872-.9727,7.2358-2.916,1.8472-1.9443,2.772-4.9805,2.772-9.1084v-1.9443Z" style="fill:#000; stroke-width:0px;"/><path d="M251.7327,52.1866c-.48,4.4639-2.0767,7.9561-4.7876,10.4766-2.7124,2.5195-6.5884,3.7793-11.6279,3.7793-3.0244,0-5.6523-.4678-7.8843-1.4043-2.2319-.9355-4.0928-2.2676-5.5801-3.9961-1.4883-1.7275-2.5918-3.8027-3.312-6.2275-.7197-2.4229-1.0801-5.123-1.0801-8.1006,0-2.9746.4072-5.6992,1.2241-8.1719.8159-2.4707,2.0039-4.582,3.564-6.3359,1.5596-1.751,3.4673-3.1074,5.7241-4.0674,2.2559-.96,4.8242-1.4404,7.7041-1.4404,2.6392,0,4.8711.3496,6.6958,1.0449,1.8237.6953,3.3359,1.6318,4.5361,2.8066,1.1992,1.1777,2.1353,2.5332,2.8081,4.0684.6714,1.5371,1.1519,3.1445,1.4399,4.8242l-8.1362,1.2246c-.3848-2.1123-1.1157-3.8633-2.1958-5.2559-1.0801-1.3926-2.8926-2.0879-5.436-2.0879-1.8247,0-3.3369.3848-4.5361,1.1514-1.2002.7686-2.1597,1.7646-2.8799,2.9873-.7202,1.2246-1.2363,2.6289-1.5479,4.2129-.313,1.584-.4683,3.1924-.4683,4.8242,0,1.8711.168,3.624.5039,5.2559.3354,1.6318.8643,3.0361,1.584,4.2109.7202,1.1777,1.6797,2.1133,2.8804,2.8086,1.1992.6963,2.6641,1.0439,4.3921,1.0439,2.4951,0,4.3916-.6592,5.688-1.9795,1.2959-1.3203,2.1113-3.2041,2.4478-5.6523h8.2798Z" style="fill:#000; stroke-width:0px;"/><path d="M310.053,27.8507v5.5439c1.2959-1.9678,2.855-3.4795,4.6797-4.5361,1.8237-1.0547,3.7681-1.584,5.832-1.584.8159,0,1.5.0254,2.0522.0723.5513.0488,1.0913.1201,1.6201.2158l-.936,7.4873c-.5288-.1426-1.105-.2383-1.728-.2871-.6245-.0469-1.2725-.0723-1.9443-.0723-1.5366,0-2.8799.252-4.0317.7559-1.1519.5039-2.124,1.1641-2.916,1.9805-.792.8164-1.3926,1.7402-1.7998,2.7715-.4087,1.0332-.6123,2.0771-.6123,3.1328v21.959h-8.1357V27.8507h7.9199Z" style="fill:#000; stroke-width:0px;"/><path d="M361.8929,54.2022c-.6724,3.8887-2.3286,6.9014-4.9678,9.0371-2.6406,2.1348-6.4326,3.2031-11.376,3.2031-5.9526,0-10.4761-1.7148-13.5723-5.1484-3.0957-3.4307-4.644-8.2676-4.644-14.5078,0-3.2148.4434-6.0713,1.332-8.5674.8877-2.4951,2.1353-4.5957,3.7441-6.2998,1.6074-1.7031,3.5278-3,5.7603-3.8887,2.2319-.8867,4.6909-1.332,7.3799-1.332,2.8799,0,5.375.4453,7.4878,1.332,2.1118.8887,3.8633,2.1367,5.2563,3.7441,1.3916,1.6094,2.4229,3.5283,3.0957,5.7598.6719,2.2324,1.0083,4.7168,1.0083,7.4521v3.6006h-26.8564c.0957,3.4082.96,6.168,2.5923,8.2793,1.6313,2.1133,4.104,3.168,7.416,3.168,2.5918,0,4.5361-.5039,5.832-1.5117,1.2959-1.0078,2.1597-2.4473,2.5918-4.3203h7.9199ZM354.4051,42.8985c0-3.0713-.7202-5.4951-2.1602-7.2725-1.4399-1.7754-3.7441-2.6641-6.9121-2.6641-3.0239,0-5.3276.9004-6.9116,2.7012-1.584,1.7988-2.4966,4.2109-2.7363,7.2354h18.7202Z" style="fill:#000; stroke-width:0px;"/><path d="M273.4933,59.6611c-2.5237-.3838-4.4204-1.5217-5.6677-3.4421-1.5605-2.3994-2.3403-5.6396-2.3403-9.7197,0-4.0332.8032-7.2363,2.4121-9.6123,1.2776-1.8887,3.1499-3.0137,5.5959-3.4009v-6.7004c-2.104.1765-4.0303.6257-5.7761,1.3533-2.3037.96-4.248,2.3037-5.832,4.0322-1.584,1.7275-2.7964,3.8154-3.6357,6.2637-.8403,2.4473-1.2603,5.1602-1.2603,8.1357,0,6.3369,1.6079,11.2324,4.8242,14.6885,2.8523,3.0649,6.7493,4.7642,11.6799,5.1104v-6.7083Z" style="fill:#000; stroke-width:0px;"/><path d="M292.8095,38.4709c-.792-2.4229-1.9687-4.5-3.5283-6.2275-1.5601-1.7285-3.4917-3.084-5.7959-4.0684-1.7917-.7649-3.7935-1.2241-5.9919-1.3945v6.7039c2.4458.3835,4.3174,1.4971,5.5959,3.3665,1.6079,2.3525,2.4121,5.5684,2.4121,9.6484,0,4.1289-.8042,7.3789-2.4121,9.7559-1.2786,1.8877-3.1501,3.0132-5.5959,3.4006v6.6975c1.9365-.1655,3.7427-.5659,5.4163-1.2065,2.2554-.8643,4.2119-2.1475,5.8677-3.8525,1.6562-1.7031,2.9399-3.791,3.8521-6.2637.9111-2.4707,1.3682-5.3389,1.3682-8.6035,0-2.8809-.396-5.5312-1.188-7.9561Z" style="fill:#000; stroke-width:0px;"/></g></g></svg>